<svg width="400" height="275" version="1.1" xmlns="http://www.w3.org/2000/svg" style="resize: both;"><g><line opacity="1" x1="10" y1="250" x2="10" y2="50" fill="none" stroke-dasharray="1, 3" stroke="#7d7d7d"></line><line opacity="1" x1="48" y1="250" x2="48" y2="50" fill="none" stroke-dasharray="1, 3" stroke="#7d7d7d"></line><line opacity="1" x1="86" y1="250" x2="86" y2="50" fill="none" stroke-dasharray="1, 3" stroke="#7d7d7d"></line><line opacity="1" x1="124.00000000000001" y1="250" x2="124.00000000000001" y2="50" fill="none" stroke-dasharray="1, 3" stroke="#7d7d7d"></line><line opacity="1" x1="162" y1="250" x2="162" y2="50" fill="none" stroke-dasharray="1, 3" stroke="#7d7d7d"></line><line opacity="1" x1="200" y1="250" x2="200" y2="50" fill="none" stroke-dasharray="1, 3" stroke="#7d7d7d"></line><line opacity="1" x1="238.00000000000003" y1="250" x2="238.00000000000003" y2="50" fill="none" stroke-dasharray="1, 3" stroke="#7d7d7d"></line><line opacity="1" x1="276" y1="250" x2="276" y2="50" fill="none" stroke-dasharray="1, 3" stroke="#7d7d7d"></line><line opacity="1" x1="314" y1="250" x2="314" y2="50" fill="none" stroke-dasharray="1, 3" stroke="#7d7d7d"></line><line opacity="1" x1="352" y1="250" x2="352" y2="50" fill="none" stroke-dasharray="1, 3" stroke="#7d7d7d"></line><line opacity="1" x1="390" y1="250" x2="390" y2="50" fill="none" stroke-dasharray="1, 3" stroke="#7d7d7d"></line><line opacity="1" x1="10" y1="230.00000228074424" x2="390" y2="230.00000228074424" fill="none" stroke-dasharray="1, 3" stroke="#7d7d7d"></line><line opacity="1" x1="10" y1="210.0000000322419" x2="390" y2="210.0000000322419" fill="none" stroke-dasharray="1, 3" stroke="#7d7d7d"></line><line opacity="1" x1="10" y1="189.9999977837396" x2="390" y2="189.9999977837396" fill="none" stroke-dasharray="1, 3" stroke="#7d7d7d"></line><line opacity="1" x1="10" y1="169.99999553523725" x2="390" y2="169.99999553523725" fill="none" stroke-dasharray="1, 3" stroke="#7d7d7d"></line><line opacity="1" x1="10" y1="149.99999328673493" x2="390" y2="149.99999328673493" fill="none" stroke-dasharray="1, 3" stroke="#7d7d7d"></line><line opacity="1" x1="10" y1="129.9999910382326" x2="390" y2="129.9999910382326" fill="none" stroke-dasharray="1, 3" stroke="#7d7d7d"></line><line opacity="1" x1="10" y1="109.99998878973025" x2="390" y2="109.99998878973025" fill="none" stroke-dasharray="1, 3" stroke="#7d7d7d"></line><line opacity="1" x1="10" y1="89.99998654122794" x2="390" y2="89.99998654122794" fill="none" stroke-dasharray="1, 3" stroke="#7d7d7d"></line><line opacity="1" x1="10" y1="69.9999842927256" x2="390" y2="69.9999842927256" fill="none" stroke-dasharray="1, 3" stroke="#7d7d7d"></line><g opacity="1" transform="translate(0,149.99999328673493)"><g transform="translate(10,0)" style="opacity: 1;"><line class="tick" y2="2" x2="0"></line><text y="5" x="0" dy=".71em" stroke="#323232" stroke-width="0.5" font-size="10" style="text-anchor: middle;">-10</text></g><g transform="translate(48,0)" style="opacity: 1;"><line class="tick" y2="2" x2="0"></line><text y="5" x="0" dy=".71em" stroke="#323232" stroke-width="0.5" font-size="10" style="text-anchor: middle;">-8</text></g><g transform="translate(86,0)" style="opacity: 1;"><line class="tick" y2="2" x2="0"></line><text y="5" x="0" dy=".71em" stroke="#323232" stroke-width="0.5" font-size="10" style="text-anchor: middle;">-6</text></g><g transform="translate(124.00000000000001,0)" style="opacity: 1;"><line class="tick" y2="2" x2="0"></line><text y="5" x="0" dy=".71em" stroke="#323232" stroke-width="0.5" font-size="10" style="text-anchor: middle;">-4</text></g><g transform="translate(162,0)" style="opacity: 1;"><line class="tick" y2="2" x2="0"></line><text y="5" x="0" dy=".71em" stroke="#323232" stroke-width="0.5" font-size="10" style="text-anchor: middle;">-2</text></g><g transform="translate(200,0)" style="opacity: 1;"><line class="tick" y2="2" x2="0"></line><text y="5" x="0" dy=".71em" stroke="#323232" stroke-width="0.5" font-size="10" style="text-anchor: middle;">0</text></g><g transform="translate(238.00000000000003,0)" style="opacity: 1;"><line class="tick" y2="2" x2="0"></line><text y="5" x="0" dy=".71em" stroke="#323232" stroke-width="0.5" font-size="10" style="text-anchor: middle;">2</text></g><g transform="translate(276,0)" style="opacity: 1;"><line class="tick" y2="2" x2="0"></line><text y="5" x="0" dy=".71em" stroke="#323232" stroke-width="0.5" font-size="10" style="text-anchor: middle;">4</text></g><g transform="translate(314,0)" style="opacity: 1;"><line class="tick" y2="2" x2="0"></line><text y="5" x="0" dy=".71em" stroke="#323232" stroke-width="0.5" font-size="10" style="text-anchor: middle;">6</text></g><g transform="translate(352,0)" style="opacity: 1;"><line class="tick" y2="2" x2="0"></line><text y="5" x="0" dy=".71em" stroke="#323232" stroke-width="0.5" font-size="10" style="text-anchor: middle;">8</text></g><g transform="translate(390,0)" style="opacity: 1;"><line class="tick" y2="2" x2="0"></line><text y="5" x="0" dy=".71em" stroke="#323232" stroke-width="0.5" font-size="10" style="text-anchor: middle;">10</text></g><path class="domain" d="M10,2V0H390V2" fill="#323232" stroke-width="0.5" stroke="none"></path></g><g opacity="1" transform="translate(200,0)"><g transform="translate(0,230.00000228074424)" style="opacity: 1;"><line class="tick" x2="2" y2="0"></line><text x="5" y="0" dy=".32em" stroke="#323232" stroke-width="0.5" font-size="10" style="text-anchor: start;">-0.8</text></g><g transform="translate(0,210.0000000322419)" style="opacity: 1;"><line class="tick" x2="2" y2="0"></line><text x="5" y="0" dy=".32em" stroke="#323232" stroke-width="0.5" font-size="10" style="text-anchor: start;">-0.6</text></g><g transform="translate(0,189.9999977837396)" style="opacity: 1;"><line class="tick" x2="2" y2="0"></line><text x="5" y="0" dy=".32em" stroke="#323232" stroke-width="0.5" font-size="10" style="text-anchor: start;">-0.4</text></g><g transform="translate(0,169.99999553523725)" style="opacity: 1;"><line class="tick" x2="2" y2="0"></line><text x="5" y="0" dy=".32em" stroke="#323232" stroke-width="0.5" font-size="10" style="text-anchor: start;">-0.2</text></g><g transform="translate(0,149.99999328673493)" style="opacity: 1;"><line class="tick" x2="2" y2="0"></line><text x="5" y="0" dy=".32em" stroke="#323232" stroke-width="0.5" font-size="10" style="text-anchor: start;">0.0</text></g><g transform="translate(0,129.9999910382326)" style="opacity: 1;"><line class="tick" x2="2" y2="0"></line><text x="5" y="0" dy=".32em" stroke="#323232" stroke-width="0.5" font-size="10" style="text-anchor: start;">0.2</text></g><g transform="translate(0,109.99998878973025)" style="opacity: 1;"><line class="tick" x2="2" y2="0"></line><text x="5" y="0" dy=".32em" stroke="#323232" stroke-width="0.5" font-size="10" style="text-anchor: start;">0.4</text></g><g transform="translate(0,89.99998654122794)" style="opacity: 1;"><line class="tick" x2="2" y2="0"></line><text x="5" y="0" dy=".32em" stroke="#323232" stroke-width="0.5" font-size="10" style="text-anchor: start;">0.6</text></g><g transform="translate(0,69.9999842927256)" style="opacity: 1;"><line class="tick" x2="2" y2="0"></line><text x="5" y="0" dy=".32em" stroke="#323232" stroke-width="0.5" font-size="10" style="text-anchor: start;">0.8</text></g><path class="domain" d="M2,50H0V250H2" fill="#323232" stroke-width="0.5" stroke="none"></path></g></g><g><g><circle opacity="0"></circle><circle opacity="0"></circle><circle opacity="0"></circle><circle opacity="0"></circle><circle opacity="0"></circle><circle opacity="0"></circle><circle opacity="0"></circle><circle opacity="0"></circle><circle opacity="0"></circle><circle opacity="0"></circle><circle opacity="0"></circle><circle opacity="0"></circle><circle opacity="0"></circle><circle opacity="0"></circle><circle opacity="0"></circle><circle opacity="0"></circle><circle opacity="0"></circle><circle opacity="0"></circle><circle opacity="0"></circle><circle opacity="0"></circle><circle opacity="0"></circle><circle opacity="0"></circle><circle opacity="0"></circle><circle opacity="0"></circle><circle opacity="0"></circle><circle opacity="0"></circle><circle opacity="0"></circle><circle opacity="0"></circle><circle opacity="0"></circle><circle opacity="0"></circle><circle opacity="0"></circle><circle opacity="0"></circle><circle opacity="0"></circle><circle opacity="0"></circle><circle opacity="0"></circle><circle opacity="0"></circle><circle opacity="0"></circle><circle opacity="0"></circle><circle opacity="0"></circle><circle opacity="0"></circle><circle opacity="0"></circle><circle opacity="0"></circle><circle opacity="0"></circle><circle opacity="0"></circle><circle opacity="0"></circle><circle opacity="0"></circle><circle opacity="0"></circle><circle opacity="0"></circle><circle opacity="0"></circle><circle opacity="0"></circle><circle opacity="0"></circle><circle opacity="0"></circle><circle opacity="0"></circle><circle opacity="0"></circle><circle opacity="0"></circle><circle opacity="0"></circle><circle opacity="0"></circle><circle opacity="0"></circle><circle opacity="0"></circle><circle opacity="0"></circle><circle opacity="0"></circle><circle opacity="0"></circle><circle opacity="0"></circle><circle opacity="0"></circle><circle opacity="0"></circle><circle opacity="0"></circle><circle opacity="0"></circle><circle opacity="0"></circle><circle opacity="0"></circle><circle opacity="0"></circle><circle opacity="0"></circle><circle opacity="0"></circle><circle opacity="0"></circle><circle opacity="0"></circle><circle opacity="0"></circle><circle opacity="0"></circle><circle opacity="0"></circle><circle opacity="0"></circle><circle opacity="0"></circle><circle opacity="0"></circle><circle opacity="0"></circle><circle opacity="0"></circle><circle opacity="0"></circle><circle opacity="0"></circle><circle opacity="0"></circle><circle opacity="0"></circle><circle opacity="0"></circle><circle opacity="0"></circle><circle opacity="0"></circle><circle opacity="0"></circle><circle opacity="0"></circle><circle opacity="0"></circle><circle opacity="0"></circle><circle opacity="0"></circle><circle opacity="0"></circle><circle opacity="0"></circle><circle opacity="0"></circle><circle opacity="0"></circle><circle opacity="0"></circle><circle opacity="0"></circle><circle opacity="0"></circle><circle opacity="0"></circle><circle opacity="0"></circle><circle opacity="0"></circle><circle opacity="0"></circle><circle opacity="0"></circle><circle opacity="0"></circle><circle opacity="0"></circle><circle opacity="0"></circle><circle opacity="0"></circle><circle opacity="0"></circle><circle opacity="0"></circle><circle opacity="0"></circle><circle opacity="0"></circle><circle opacity="0"></circle><circle opacity="0"></circle><circle opacity="0"></circle><circle opacity="0"></circle><circle opacity="0"></circle><circle opacity="0"></circle><circle opacity="0"></circle><circle opacity="0"></circle><circle opacity="0"></circle><circle opacity="0"></circle><circle opacity="0"></circle><circle opacity="0"></circle><circle opacity="0"></circle><circle opacity="0"></circle><circle opacity="0"></circle><circle opacity="0"></circle><circle opacity="0"></circle><circle opacity="0"></circle><circle opacity="0"></circle><circle opacity="0"></circle><circle opacity="0"></circle><circle opacity="0"></circle><circle opacity="0"></circle><circle opacity="0"></circle><circle opacity="0"></circle><circle opacity="0"></circle><circle opacity="0"></circle><circle opacity="0"></circle><circle opacity="0"></circle><circle opacity="0"></circle><circle opacity="0"></circle><circle opacity="0"></circle><circle opacity="0"></circle><circle opacity="0"></circle><circle opacity="0"></circle><circle opacity="0"></circle><circle opacity="0"></circle><circle opacity="0"></circle><circle opacity="0"></circle><circle opacity="0"></circle><circle opacity="0"></circle><circle opacity="0"></circle><circle opacity="0"></circle><circle opacity="0"></circle><circle opacity="0"></circle><circle opacity="0"></circle><circle opacity="0"></circle><circle opacity="0"></circle><circle opacity="0"></circle><circle opacity="0"></circle><circle opacity="0"></circle><circle opacity="0"></circle><circle opacity="0"></circle><circle opacity="0"></circle><circle opacity="0"></circle><circle opacity="0"></circle><circle opacity="0"></circle><circle opacity="0"></circle><circle opacity="0"></circle><circle opacity="0"></circle><circle opacity="0"></circle><circle opacity="0"></circle><circle opacity="0"></circle><circle opacity="0"></circle><circle opacity="0"></circle><circle opacity="0"></circle><circle opacity="0"></circle><circle opacity="0"></circle><circle opacity="0"></circle><circle opacity="0"></circle><circle opacity="0"></circle><circle opacity="0"></circle><circle opacity="0"></circle><circle opacity="0"></circle><circle opacity="0"></circle><circle opacity="0"></circle><circle opacity="0"></circle><circle opacity="0"></circle><circle opacity="0"></circle><circle opacity="0"></circle><circle opacity="0"></circle><circle opacity="0"></circle><circle opacity="0"></circle><circle opacity="0"></circle><circle opacity="0"></circle><circle opacity="0"></circle><circle opacity="0"></circle><circle opacity="0"></circle><circle opacity="0"></circle><circle opacity="0"></circle><circle opacity="0"></circle><circle opacity="0"></circle><circle opacity="0"></circle><circle opacity="0"></circle><circle opacity="0"></circle><circle opacity="0"></circle><circle opacity="0"></circle><circle opacity="0"></circle><circle opacity="0"></circle><circle opacity="0"></circle><circle opacity="0"></circle><circle opacity="0"></circle><circle opacity="0"></circle><circle opacity="0"></circle><circle opacity="0"></circle><circle opacity="0"></circle><circle opacity="0"></circle><circle opacity="0"></circle><circle opacity="0"></circle><circle opacity="0"></circle><circle opacity="0"></circle><circle opacity="0"></circle><circle opacity="0"></circle><circle opacity="0"></circle><circle opacity="0"></circle><circle opacity="0"></circle><circle opacity="0"></circle><circle opacity="0"></circle><circle opacity="0"></circle><circle opacity="0"></circle><circle opacity="0"></circle><circle opacity="0"></circle><circle opacity="0"></circle><circle opacity="0"></circle><circle opacity="0"></circle><circle opacity="0"></circle><circle opacity="0"></circle><circle opacity="0"></circle><circle opacity="0"></circle><circle opacity="0"></circle><circle opacity="0"></circle><circle opacity="0"></circle><circle opacity="0"></circle><circle opacity="0"></circle><circle opacity="0"></circle><circle opacity="0"></circle><circle opacity="0"></circle><circle opacity="0"></circle><circle opacity="0"></circle><circle opacity="0"></circle><circle opacity="0"></circle><circle opacity="0"></circle><circle opacity="0"></circle><circle opacity="0"></circle><circle opacity="0"></circle><circle opacity="0"></circle><circle opacity="0"></circle><circle opacity="0"></circle><circle opacity="0"></circle><circle opacity="0"></circle><circle opacity="0"></circle><circle opacity="0"></circle><circle opacity="0"></circle><circle opacity="0"></circle><circle opacity="0"></circle><circle opacity="0"></circle><circle opacity="0"></circle><circle opacity="0"></circle><circle opacity="0"></circle><circle opacity="0"></circle><circle opacity="0"></circle><circle opacity="0"></circle><circle opacity="0"></circle><circle opacity="0"></circle><circle opacity="0"></circle><circle opacity="0"></circle><circle opacity="0"></circle><circle opacity="0"></circle><circle opacity="0"></circle><circle opacity="0"></circle><circle opacity="0"></circle><circle opacity="0"></circle><circle opacity="0"></circle><circle opacity="0"></circle><circle opacity="0"></circle><circle opacity="0"></circle><circle opacity="0"></circle><circle opacity="0"></circle><circle opacity="0"></circle><circle opacity="0"></circle><circle opacity="0"></circle><circle opacity="0"></circle><circle opacity="0"></circle><circle opacity="0"></circle><circle opacity="0"></circle><circle opacity="0"></circle><circle opacity="0"></circle><circle opacity="0"></circle><circle opacity="0"></circle><circle opacity="0"></circle><circle opacity="0"></circle><circle opacity="0"></circle><circle opacity="0"></circle><circle opacity="0"></circle><circle opacity="0"></circle><circle opacity="0"></circle><circle opacity="0"></circle><circle opacity="0"></circle><circle opacity="0"></circle><circle opacity="0"></circle><circle opacity="0"></circle><circle opacity="0"></circle><circle opacity="0"></circle><circle opacity="0"></circle><circle opacity="0"></circle><circle opacity="0"></circle><circle opacity="0"></circle><circle opacity="0"></circle><circle opacity="0"></circle><circle opacity="0"></circle><circle opacity="0"></circle><circle opacity="0"></circle><circle opacity="0"></circle><circle opacity="0"></circle><circle opacity="0"></circle><circle opacity="0"></circle><circle opacity="0"></circle><circle opacity="0"></circle><circle opacity="0"></circle><circle opacity="0"></circle><circle opacity="0"></circle><circle opacity="0"></circle><circle opacity="0"></circle><circle opacity="0"></circle><circle opacity="0"></circle><circle opacity="0"></circle><circle opacity="0"></circle><circle opacity="0"></circle><circle opacity="0"></circle><circle opacity="0"></circle><circle opacity="0"></circle><circle opacity="0"></circle><circle opacity="0"></circle><circle opacity="0"></circle><circle opacity="0"></circle><circle opacity="0"></circle><circle opacity="0"></circle><circle opacity="0"></circle><circle opacity="0"></circle><circle opacity="0"></circle><circle opacity="0"></circle><circle opacity="0"></circle><circle opacity="0"></circle><circle opacity="0"></circle><circle opacity="0"></circle><circle opacity="0"></circle><circle opacity="0"></circle><circle opacity="0"></circle><circle opacity="0"></circle><circle opacity="0"></circle><circle opacity="0"></circle><circle opacity="0"></circle><circle opacity="0"></circle><circle opacity="0"></circle><circle opacity="0"></circle><circle opacity="0"></circle><circle opacity="0"></circle><circle opacity="0"></circle><circle opacity="0"></circle><circle opacity="0"></circle><circle opacity="0"></circle><circle opacity="0"></circle><circle opacity="0"></circle><circle opacity="0"></circle><circle opacity="0"></circle><circle opacity="0"></circle><circle opacity="0"></circle><circle opacity="0"></circle><circle opacity="0"></circle><circle opacity="0"></circle><circle opacity="0"></circle><circle opacity="0"></circle><circle opacity="0"></circle><circle opacity="0"></circle><circle opacity="0"></circle><circle opacity="0"></circle><circle opacity="0"></circle><circle opacity="0"></circle><circle opacity="0"></circle><circle opacity="0"></circle><circle opacity="0"></circle><circle opacity="0"></circle><circle opacity="0"></circle><circle opacity="0"></circle><circle opacity="0"></circle><circle opacity="0"></circle><circle opacity="0"></circle><circle opacity="0"></circle><circle opacity="0"></circle><circle opacity="0"></circle><circle opacity="0"></circle><circle opacity="0"></circle><circle opacity="0"></circle><circle opacity="0"></circle><circle opacity="0"></circle><circle opacity="0"></circle><circle opacity="0"></circle><circle opacity="0"></circle><circle opacity="0"></circle><circle opacity="0"></circle><circle opacity="0"></circle><circle opacity="0"></circle><circle opacity="0"></circle><circle opacity="0"></circle><circle opacity="0"></circle><circle opacity="0"></circle><circle opacity="0"></circle><circle opacity="0"></circle><circle opacity="0"></circle><circle opacity="0"></circle><circle opacity="0"></circle><circle opacity="0"></circle><circle opacity="0"></circle><circle opacity="0"></circle><circle opacity="0"></circle><circle opacity="0"></circle><circle opacity="0"></circle><circle opacity="0"></circle><circle opacity="0"></circle><circle opacity="0"></circle><circle opacity="0"></circle><circle opacity="0"></circle><circle opacity="0"></circle><circle opacity="0"></circle><circle opacity="0"></circle><circle opacity="0"></circle><circle opacity="0"></circle><circle opacity="0"></circle><circle opacity="0"></circle><circle opacity="0"></circle><circle opacity="0"></circle><circle opacity="0"></circle><circle opacity="0"></circle><circle opacity="0"></circle><circle opacity="0"></circle><circle opacity="0"></circle><circle opacity="0"></circle><circle opacity="0"></circle><circle opacity="0"></circle><circle opacity="0"></circle><circle opacity="0"></circle><circle opacity="0"></circle><circle opacity="0"></circle><circle opacity="0"></circle><circle opacity="0"></circle><circle opacity="0"></circle><circle opacity="0"></circle><circle opacity="0"></circle><circle opacity="0"></circle><circle opacity="0"></circle><circle opacity="0"></circle><circle opacity="0"></circle><circle opacity="0"></circle><circle opacity="0"></circle><circle opacity="0"></circle><circle opacity="0"></circle><circle opacity="0"></circle><circle opacity="0"></circle><circle opacity="0"></circle><circle opacity="0"></circle><circle opacity="0"></circle><circle opacity="0"></circle><circle opacity="0"></circle><circle opacity="0"></circle><circle opacity="0"></circle><circle opacity="0"></circle><circle opacity="0"></circle><circle opacity="0"></circle><circle opacity="0"></circle><circle opacity="0"></circle><circle opacity="0"></circle><circle opacity="0"></circle><circle opacity="0"></circle><circle opacity="0"></circle><circle opacity="0"></circle><circle opacity="0"></circle><circle opacity="0"></circle><circle opacity="0"></circle></g><g><path opacity="1" d="M10,52.006123514997796L10.737063122412652,50.918698480676774L11.146221531243054,50.45681249214951L11.491845611181422,50.177463909174925L11.788054128741281,50.03666665113186L12.047365673449434,50.00031701574761L12.231472275214944,50.02962573827656L12.395201790222215,50.09757484543625L12.554674676127549,50.20429923771454L12.715502549420034,50.35498697872053L12.868778796986444,50.54117467558986L13.027236466707457,50.77973642124311L13.208685766650618,51.113571310305964L13.381771450100754,51.49559238053536L13.56300147448391,51.9656048707165L13.765929079282461,52.58124062186723L13.938046821505077,53.18092310072439L14.088391066130221,53.76540525390686L14.263863244127911,54.521764386401614L14.423346974724573,55.280861617509785L14.750629815310006,57.061346433833585L15.047057252334538,58.94390196344078L15.320719062822432,60.9196023319705L15.724145787358026,64.26415797239301L16.106345943676573,67.92203080770244L16.577376689958438,73.09864633853073L17.03807617464998,78.87821850145943L18.48374427309283,101.37473073373043L21.21587068477773,156.02996689525696L22.83015907280911,188.65414701184278L23.7618376535603,205.25612051766245L24.64525098004691,218.74123989095932L25.411636626894953,228.4107224987546L25.83998997810727,232.96196353114496L26.275325006461248,236.9645880601019L26.54151308190738,239.10937689160784L26.763900383912187,240.7299094142579L26.957646364515114,242.0178416951908L27.17876955583137,243.35073352396256L27.411855448474626,244.60270513579317L27.63794806642308,245.67276410028373L27.905905177821047,246.76524647245742L28.17147133611752,247.66981659197737L28.407433267939453,248.33348596171192L28.647015784733945,248.88086831225803L28.85191051704259,249.25417525484406L29.098036241119715,249.5948661211253L29.30621078720183,249.79764047593747L29.518656771125688,249.93000278240197L29.7070386358544,249.9890312556586L29.904467859658055,249.99661664926563L30.10547430038085,249.95190972155143L30.30293859971888,249.86101656702127L30.70438237132386,249.55072552513343L31.143277242895536,249.0531766235651L31.66839232708757,248.29807325424215L34.81578229507283,243.09177927080995L35.46074980884264,242.31071710887318L36.034166624681134,241.7610972845558L36.70035369975794,241.30019664154332L37.289496172151885,241.0494295580152L38.492274460834935,240.9571857391799L39.90079260669242,241.43081972739367L45.83780701608525,245.54753738449097L48.85397389202262,246.73602471950787L52.366274386629264,246.801728364272L55.4258278693345,245.70430257289777L58.89945021883351,243.32382402479337L61.80506786988621,241.3533639196657L63.313381491715596,240.9333069315805L64.20533193055859,241.03360330888773L65.01364090204392,241.39675588501893L65.73420464119198,241.95504631441932L66.38974589262963,242.65549038416097L67.85523034209969,244.80125117767156L69.35471951099174,247.42949323248794L70.27047931852034,248.87336925526992L70.68075874792038,249.38244008158142L71.03475674735671,249.71739538077918L71.43753700466884,249.9499216777538L71.65443180351295,249.99751457820994L71.83771288517491,249.98971235114234L72.0352335119683,249.9276202464185L72.25912144629417,249.784171123625L72.49236577439926,249.54505427985228L72.62273153914279,249.36868676636684L72.77385645090061,249.12364749585845L72.99223306369514,248.68844033967252L73.23165340682367,248.09429879806578L73.49285546924436,247.29707591147115L73.73635531371804,246.40485180883022L73.93118924003039,245.58171529445394L74.16405295805608,244.4644576660238L74.39821901065937,243.18819835610122L74.65333420354318,241.61620980668403L74.87676614327054,240.07838224940707L75.11073403566465,238.30188992272522L75.37970800831701,236.0441348769397L75.6641527728867,233.40026569172863L76.07355938794622,229.124141973972L76.55087281699541,223.43153915344485L77.48776352850464,210.0887062692436L78.38606533655877,194.82625089295138L81.86528311809991,124.16273609259521L83.53222544731474,93.42358363056623L84.41673349980555,80.14213037061026L85.2288578504089,70.17639086358318L85.6638046996071,65.74387632394475L86.05280296489975,62.307703373895855L86.44046816410099,59.365426393661046L86.76389088880235,57.26506924197748L86.98599449487743,56.00173135647364L87.19085549390267,54.96067536974814L87.44636939435097,53.82252612611749L87.66968468576424,52.967021099907214L87.88274116458948,52.26586052031517L88.0833303418365,51.70328481507191L88.28702370821405,51.223778287681064L88.53228858750134,50.76189537752521L88.79991270290525,50.39180479722273L89.02444844955858,50.18073264080273L89.25394861685658,50.051053686949516L89.52871495105599,50L89.7443633280208,50.03187873319046L89.96806473240002,50.124968638228644L90.4567988065453,50.51061577508288L90.88678411343624,51.016426305219895L91.38236532029137,51.73912858862418L92.36093636054743,53.40800726640909L93.97720922165641,56.151154623108255L94.81649270018782,57.304891260776806L95.78231958459189,58.28653752120496L96.48213062941441,58.74824984275037L97.12627469780162,58.990894695309876L97.9662384182791,59.06437696215133L98.73206028864023,58.92176550509319L105.81760348864243,54.29329465232305L109.04928879803835,53.16806314002089L112.68427906690431,53.33469571234038L114.95766414370264,54.2124056436593L117.51882559324551,55.85881980463976L120.13579875328156,57.83274351203784L121.59000322370365,58.69069162433348L122.44300260177852,58.98714498245579L123.3213540868826,59.06476375888726L124.48472945508796,58.72874745584728L125.02950175488336,58.378714142462385L125.63052165218564,57.84420961515387L126.75534532164824,56.44393563843537L127.8496258034065,54.67896443677173L129.28208306148525,52.168526819414446L129.94600767148796,51.146906971350006L130.30887400754517,50.68707455808452L130.68201636377475,50.31729764713463L131.00673228930515,50.1013498830938L131.3357668684053,50.003250105443826L131.52269814098713,50.00939843776383L131.69141191710145,50.05748363626062L131.83859565828976,50.13473458238551L132.00692808982558,50.26601623742059L132.17120125242786,50.440972693478784L132.34275150910193,50.676047600909875L132.50916097887372,50.95810207403344L132.67552361934906,51.29611986548635L132.81619264881382,51.62774024014492L132.96542163759483,52.02741855256167L133.13740249341436,52.5517172756013L133.30367644196514,53.1261470391055L133.45455141198346,53.70707702472307L133.63472253524537,54.47799417872592L133.80884393185508,55.30566858876983L133.96659629530245,56.12799181402695L134.2811072394409,57.98084390747091L134.59801963966106,60.14706838758183L134.87374390216598,62.285796607535346L135.12773202702988,64.47127655826509L135.69429743368846,70.11026367965029L136.3867070839812,78.45549951505515L137.11334616262315,88.9012523407676L138.31668362738412,109.61079354546243L144.0064675082101,218.47269890525897L144.658220040382,226.86172882545407L145.02618625200589,230.97318540970156L145.3882759371458,234.57813787688022L145.77791294700864,237.97621987262835L146.12926600974498,240.62434142708423L146.4936424098994,242.97000763537957L146.8209236021074,244.74553194192737L147.00181755189266,245.59867361339886L147.21727608867036,246.5010357971153L147.44449514087805,247.32434100188038L147.65145778692857,247.96515675768637L147.85706880850006,248.50411167709046L148.03191842224342,248.88974466917827L148.23853203183145,249.2640093542906L148.4256718005278,249.5311620757961L148.61799032911244,249.73895656188245L148.78912088126634,249.8704800610733L149.01678837699447,249.97300940793613L149.21640830293666,250L149.4195927675726,249.97224063997558L149.61338986620177,249.89831955871193L150.04426456796932,249.5890442258589L150.41791163575513,249.18612678246967L150.84775864088502,248.6040168948582L151.714797691511,247.18603173621645L153.54537632809166,244.03677201629696L154.24818392649524,243.02290568063455L155.02634078533723,242.11801757729506L155.7525745745761,241.50344239790434L156.4211437894695,241.13781522938146L157.52597750638913,240.93023688626783L158.64416824035646,241.1517276961378L160.87765974216742,242.4487114708496L166.32267849578318,246.1044860845033L168.43825233593284,246.7782494894046L170.6953458804418,246.92895223440797L173.27395239393903,246.3899443736858L175.85520438509667,245.08576817828433L180.68461232213446,241.61750826129793L181.9448871277604,241.06138211936076L183.1033519051187,240.9425412224259L184.172750544039,241.27006212824512L184.8257770490409,241.7042510580194L185.3955321517779,242.23305148098873L190.5604919686442,249.82115735928767L190.93013221600208,249.98187502234262L191.112990191781,249.9998071077984L191.30554915513025,249.9693919078223L191.52002987828695,249.8708495923151L191.77608782013942,249.6558851431968L191.97611186744913,249.4080259170046L192.20572998897782,249.0301066155804L192.4332241013293,248.5502350675406L192.63731244073975,248.02449298268095L192.8136029634617,247.49375927153073L193.02575311484378,246.75613110605076L193.22262444813998,245.970438401363L193.45555261595334,244.90911133899652L193.64827673288914,243.91852600339607L193.83980108265845,242.82944722992886L194.17877571153187,240.6362034834785L194.53604843456844,237.94202962250804L194.8822364265925,234.94264597883148L195.30486727348716,230.74739134373624L196.1109030164838,221.09453856066875L196.7749403646896,211.54232589231873L202.91727394581184,93.34953242734741L203.65053329095915,82.17479110413882L204.38036614649943,72.76405353978033L204.77876844762562,68.37527990788224L205.19003449161343,64.3990005137577L205.61547145200987,60.86637015824183L205.9949028323016,58.19688182165723L206.31648602098403,56.27389990659566L206.5953475739778,54.84644469066366L206.76279793424155,54.09172117605501L206.9165257584114,53.46391766666843L207.06494213656686,52.914973463807875L207.2369280393764,52.346633703706196L207.40511084188793,51.85852393746918L207.55929540582417,51.46739639859144L207.7052987819543,51.144655491714374L207.88237789942923,50.81262654226268L208.08653870219842,50.50643863776293L208.26856485363567,50.298580203881386L208.47652124380798,50.13130934639845L208.659996739427,50.0416887982805L215.63554904097103,58.62144715475244L216.55925862418027,59.003269427428854L217.3298492572016,59.06540315353328L218.7479585734846,58.67776463161803L222.54663935712406,56.041978844462804L225.34797813627802,54.21452439709125L228.76711976699767,53.120320630687104L231.14806933787713,53.15071118822493L233.8999620301466,53.996702742000885L239.62699904504308,57.9090637610439L241.28508053586452,58.82207780415073L242.05745629755947,59.032577844776135L242.84125552372484,59.05241445116327L243.82661550000276,58.74875644964565L244.74383155074884,58.10101946367324L245.54297782856048,57.243877711154454L246.38942755710087,56.064138984181106L249.3562176240714,51.10614643177292L249.83815321799864,50.52569025244402L250.34230533827403,50.12462627539225L250.55481746591317,50.0349471901649L250.78036390019815,50.000004894395005L250.99647467154054,50.03079215175831L251.17536920490642,50.108213278000974L251.3542524937232,50.23637135540191L251.53825642862748,50.4248239781611L251.73304294818487,50.69110954699742L251.94600641615398,51.06612776702671L252.1671484540793,51.554465840988094L252.4038784046181,52.19628879313826L252.5807760245203,52.76090297537646L252.78749104800434,53.51761308234886L252.9502990026005,54.19024381182363L253.11751899326492,54.954128121769116L253.29755305815823,55.862078492038734L253.50806781475129,57.04006523834117L253.8661555243725,59.343678099495776L254.23329198810416,62.1146349575714L254.52858227437127,64.65526899554254L254.8716240836078,67.96528662509998L255.42370332860742,74.1152808321738L256.18673912143703,84.28106039889619L256.92762308094046,95.9119507019434L258.44655099533065,124.204881492262L261.52949879786536,187.4818029750542L263.0765304421149,213.9898144899014L263.67568237921324,222.36180767809773L264.3748611241822,230.63525787160899L264.83957020563105,235.23211522338264L265.2543667802265,238.73782620027214L265.4686050371779,240.33390532896593L265.7018598746564,241.91047329295745L265.8884224931735,243.0537709639251L266.09370641565687,244.19460456730917L266.265194951419,245.05636633914932L266.45031209570675,245.89649011625497L266.65717495824765,246.72864361913008L266.8270756286206,247.33122128786675L267.00287203747104,247.88111549985334L267.1888912121812,248.38498345363482L267.39364947822105,248.85140038836326L267.62408555302244,249.27206736318092L267.83762763740083,249.5696390283425L268.0190410971821,249.75732102375184L268.21408306376395,249.89681320697593L268.40221287362124,249.9743543796859L268.5884669744778,249.99998119739095L268.7985284864862,249.9726602896697L269.03110895098587,249.87918908210503L269.2644444670694,249.72563041464107L269.6542407939999,249.35453532946792L270.09485939270064,248.79614991312792L271.0760901632001,247.21959539320102L272.3872304219724,244.91471500165008L273.77730019170286,242.83132942142933L274.35681149290656,242.16870553272986L275.009039019365,241.59231037638202L276.06978229465454,241.0436421649558L276.8826572989663,240.9298940130744L277.7956591908694,241.07606583006284L279.21722611226744,241.74296516192797L282.01427381125114,243.78889534469963L284.57989078014367,245.53680143102082L286.8621145055551,246.53823184164276L289.3519112686245,246.94357309830008L291.7727247496924,246.66079128694983L294.7078425820729,245.41124084280858L298.25750154165615,242.86430162921692L299.9797522722733,241.6672316510359L301.5497030956214,241.00477509413767L302.2551170568614,240.93000248250883L302.9124366910413,241.0189190313737L303.76924429805996,241.39339325521465L304.5304450104383,241.98805138706825L305.4541026038456,243.0387803328603L306.3862479313582,244.42104329433369L308.043454574433,247.30444771767492L309.1075780033581,248.97608531059262L309.53884227763024,249.48494612499164L309.9898569457566,249.851191698447L310.36909205542725,249.99233751538398L310.5906522073899,249.99104122214857L310.8091529868692,249.92153146665365L311.03163386378066,249.77461224916638L311.2971359925689,249.48941742276077L311.54795921983845,249.1003589005714L311.7861893521287,248.61418850269152L312.01707206804434,248.02662797266183L312.24034530422193,247.34242441133946L312.38416808754107,246.83818365514946L312.52133418806466,246.3090553546212L312.7794672201258,245.18050221804697L312.9826731849452,244.16508774642406L313.2111803587483,242.88385021393736L313.4356512442598,241.47633721089278L313.64772644060554,240.0065526562474L313.99265927208825,237.31602577420477L314.2870307043338,234.7176882821772L314.83328914229423,229.13873856188752L315.360770895557,222.80603322626786L315.900729033506,215.372489258757L317.69223195309746,184.5809230423485L319.6628159606177,144.06152642859087L321.44963313130717,108.19236372693143L322.93818193780385,83.49734992087298L323.73729817545717,73.04055985075095L324.39215860626854,66.05517189478459L324.6943455930021,63.310957600473586L325.0600075673939,60.384729270318076L325.44694342577003,57.742839408377456L325.7829367956996,55.81080616122186L325.94952410081186,54.97206916755868L326.1482109704928,54.07079381278013L326.2878484825824,53.499767204546586L326.4582245984025,52.870333745793374L326.6451637105459,52.26167006794411L326.8047119980145,51.807247317020725L326.9441926129513,51.457058733206956L327.10074482258784,51.11419699614189L327.28875568142234,50.76940538585544L327.50552667203516,50.45753339150309L327.6760618342007,50.272760452619096L327.84533773862137,50.13882446098998L328.03191458442814,50.0447353487578L328.25210350393263,50.00069917581239L328.44644613435395,50.017269647996805L328.67286445355967,50.09615811418428L329.1412141607041,50.435451477534095L329.60063102310073,50.9546316640466L330.46835382078586,52.26920910375867L332.029133644504,55.00314978602137L333.4731364914454,57.17567922633116L334.3616367335209,58.132113417628354L335.21892466176246,58.73575555306306L335.86982547782804,58.986527948216676L336.66475104572544,59.067683788119886L338.20146020328315,58.643510778479275L344.0868420390072,54.56895257016894L346.7783971911115,53.395446217320256L348.9878066562724,53.05770886610286L351.6743888122613,53.3958621196352L353.90502138091944,54.31063226179053L359.5128735658931,58.23806113184013L360.91027774956393,58.90701830955996L362.1568793455522,59.05905894334846L362.9171428798304,58.878956626319855L363.8207592578342,58.355559018215274L364.5060052881393,57.72494635748958L365.3318500859891,56.70674794102604L367.77260405864615,52.62816332375307L368.4379735703505,51.53786899447053L369.1871427669242,50.558432645707384L369.536224014204,50.24436058517375L369.8986756394552,50.046650373301496L370.1876825677243,50.00028046876105L370.50354038681127,50.08046076343701L370.69663682197006,50.20461904266815L370.87006627125106,50.36913449747171L371.0718766936771,50.62812227115815L371.2587927545719,50.93700481772283L371.4362882215074,51.295508762381736L371.58809166243833,51.65513376360767L371.74833119156585,52.090244742290295L371.93963419615733,52.68772460191073L372.10520880148823,53.27638883373307L372.30073555427515,54.06073986944544L372.5106740684514,55.01491910744656L372.68594089447475,55.903820390674476L372.8936422802131,57.069919746730534L373.14271048881153,58.63505921074283L373.57985376493366,61.84047256477844L373.9859365029974,65.36288830746557L374.32595285198477,68.72848735382357L375.03835211296746,77.03086243878985L375.86691460962356,88.78536714132976L376.6755002572004,102.2636961474572L380.1605464214975,172.6805482867441L381.926802810809,205.6436381258722L382.74519459924136,218.16077931786833L383.25756251627047,224.91175738808792L383.69648454855894,230.00134924319786L384.1134958464021,234.24085130943993L384.6145379592586,238.5787156104848L385.02859150389685,241.56157713661491L385.26449927134854,243.02772884509452L385.5017873399574,244.33862609755224L385.67756730614724,245.20749809334546L385.8604934024454,246.02261755991466L386.0646085274351,246.8288716167858L386.24487165128505,247.45396789156308L386.46299210010625,248.10632812154572L386.6699760138561,248.62530571134093L386.91842544662916,249.12722141774458L387.1367290167932,249.4662478694629L387.3163459472172,249.67839465735406L387.493305152433,249.83215417160469L387.6493821693329,249.92498293163055L387.8127277271916,249.98181633060503L388.00560730420244,249.99936846126084L388.1651923969509,249.97619672932302L388.57192622506545,249.77970796352727L388.93048817195023,249.46647898247312L389.2992362896544,249.03453088952284L390,247.99386305847207" fill="none" stroke="#0064c8"></path></g></g><g opacity="0"><circle r="5" fill="#c83232" cx="386.20000000000005" cy="247.3057942187192"></circle><g><text fill="#0064c8" stroke="none" x="100" y="21">x: 9.800, y: -0.9731</text></g><line x1="0" y1="0" x2="0" y2="275" fill="none" stroke-dasharray="2, 3" stroke="#323232" transform="translate(386.20000000000005, 0)"></line><line x1="0" y1="0" x2="400" y2="0" fill="none" stroke-dasharray="2, 3" stroke="#323232" transform="translate(0, 263)"></line></g></svg>